<?xml version="1.0" encoding="UTF-8"?>
<svg version="1.1" viewBox="0 0 26 52" width="26" height="52" xmlns="http://www.w3.org/2000/svg" xmlns:xlink="http://www.w3.org/1999/xlink">
 <g display="none">
  <rect width="26" height="52" color="#000000" display="inline" fill="#f2f2f2"/>
  <rect y="26" width="26" height="26" color="#000000" display="inline" fill="#e6e6e6"/>
 </g>
 <g transform="translate(0 -1000.4)">
  <use transform="translate(0,26)" width="100%" height="100%" xlink:href="#rect15634"/>
  <use transform="translate(0,26)" width="100%" height="100%" xlink:href="#path15639"/>
  <use transform="translate(0,26)" width="100%" height="100%" xlink:href="#path16061"/>
  <use transform="translate(0,26)" width="100%" height="100%" xlink:href="#path16059"/>
  <path id="rect15634" transform="translate(0 1000.4)" d="m5 15v6h6v-2h-4v-4z" color="#000000" fill="#404040"/>
  <path id="path15639" transform="translate(0 1000.4)" d="m21 15v6h-6v-2h4v-4z" color="#000000" fill="#404040"/>
  <path d="m10 1037.4v4l1 1h4l1-1v-4l-1-1h-4z" color="#000000" fill="#404040"/>
  <path id="path16059" d="m5 1011.4v-6h6v2h-4v4z" color="#000000" fill="#404040"/>
  <path id="path16061" d="m21 1011.4v-6h-6v2h4v4z" color="#000000" fill="#404040"/>
 </g>
</svg>
